<svg xmlns="http://www.w3.org/2000/svg" viewBox="0 0 512 512">
    <style>
        .bg { fill: #0d0f12; }
        .fg { fill: #e9eaee; }
        @media (prefers-color-scheme: dark) {
            .bg { fill: #f4f5f7; }
            .fg { fill: #14161a; }
        }
    </style>
    <rect class="bg" width="512" height="512" rx="112" fill="#f4f5f7" />
    <path
        class="fg"
        fill="#14161a"
        fill-rule="evenodd"
        d="M 285.1 130.0 L 285.26 158.76 L 318.51 189.51 C 336.8 206.47, 353.42 222.09, 355.41 224.09 L 359.07 228.08 L 354.91 231.4 C 342.61 241.38, 298.4 281.6, 298.73 282.6 C 299.06 283.1, 305.21 288.92, 312.53 295.4 C 319.84 302.05, 346.77 326.49, 372.37 349.76 C 397.97 373.2, 419.58 392.32, 420.41 392.32 C 421.08 392.32, 421.24 391.15, 420.74 389.66 C 420.24 388.16, 419.75 375.69, 419.75 361.89 L 419.75 336.63 L 389.82 310.03 L 359.9 283.43 L 367.88 275.95 C 372.37 271.8, 386.17 259.49, 398.8 248.52 L 421.57 228.58 L 411.1 218.6 C 405.28 213.12, 375.86 185.69, 345.77 157.76 C 315.52 129.83, 289.59 105.73, 288.09 104.07 C 285.26 101.24, 285.1 102.57, 285.1 130.0 Z M 149.62 170.73 C 144.96 172.39, 138.81 175.55, 135.82 177.54 L 130.5 181.36 L 130.5 175.55 L 130.5 169.56 L 110.55 169.56 L 90.6 169.56 L 90.6 273.79 L 90.6 378.19 L 111.38 356.58 L 132.0 334.96 L 132.16 282.6 C 132.16 253.68, 132.99 227.58, 133.82 224.42 C 134.66 221.09, 138.15 215.94, 141.3 212.78 C 146.46 207.8, 148.29 207.13, 157.6 206.47 C 169.9 205.8, 176.55 209.13, 180.87 218.27 C 183.36 223.26, 183.69 231.07, 183.69 278.28 L 183.69 332.47 L 204.97 332.47 L 226.08 332.47 L 226.08 277.95 C 226.08 228.74, 226.42 223.09, 229.08 218.1 C 238.22 201.31, 263.99 201.98, 274.13 219.43 C 277.12 224.42, 277.78 229.07, 278.45 249.52 L 279.28 273.96 L 298.73 256.17 L 318.18 238.55 L 318.18 228.58 C 318.18 223.09, 317.51 217.27, 316.85 215.61 C 314.85 210.46, 281.61 177.87, 273.63 173.22 C 266.98 169.4, 264.15 168.73, 252.68 168.73 C 241.88 168.9, 237.55 169.56, 229.91 173.22 C 224.59 175.71, 218.44 179.54, 216.28 181.7 L 212.12 185.85 L 207.8 181.2 C 196.66 169.56, 167.57 164.41, 149.62 170.73 Z M 278.45 311.69 L 278.45 332.47 L 302.05 332.47 C 322.0 332.47, 325.33 332.14, 323.33 330.31 C 290.08 299.72, 280.28 290.91, 279.44 290.91 C 278.95 290.91, 278.45 300.22, 278.45 311.69 Z"
    />
</svg>
